<svg width="28" height="12" viewBox="0 0 28 12" fill="none" xmlns="http://www.w3.org/2000/svg">
<path d="M13.0903 11.4186V11.3902H12.2969V11.3619H11.8436V11.3336H11.3902V11.3052H11.0219V11.2769H10.7386V11.2486H10.4835V11.2202H10.2002V11.1919H9.9452V11.1636H9.6902V11.1352H9.5202V11.1069H9.32186V11.0786H9.12352V11.0502H8.95352V11.0219H8.75518V10.9936H8.55684V10.9652H8.41517V10.9369H8.2735V10.9086H8.1035V10.8802H7.96183V10.8519H7.82016V10.8236H7.67849V10.7952H7.53682V10.7669H7.39515V10.7386H7.25348V10.7102H7.14015V10.6819H7.02681V10.6536H6.91348V10.6252H6.80014V10.5969H6.6868V10.5686H6.57347V10.5402H6.46013V10.5119H6.3468V10.4835H6.23346V10.4552H6.12013V10.4269H6.03512V10.3985H5.95012V10.3702H5.83679V10.3419H5.75179V10.3135H5.66678V10.2852H5.58178V10.2569H5.46845V10.2285H5.38344V10.2002H5.29844V10.1719H5.18511V10.1435H5.10011V10.1152H5.0151V10.0869H4.95844V10.0585H4.87343V10.0302H4.78843V10.0019H4.73176V9.97354H4.64676V9.9452H4.56176V9.91687H4.47676V9.88854H4.42009V9.8602H4.33509V9.83187H4.25009V9.80354H4.19342V9.7752H4.10842V9.74687H4.05175V9.71853H3.96675V9.6902H3.91008V9.66187H3.85341V9.63353H3.79674V9.6052H3.74008V9.57686H3.65508V9.54853H3.59841V9.5202H3.54174V9.49186H3.48507V9.46353H3.40007V9.43519H3.3434V9.40686H3.28673V9.37853H3.23007V9.35019H3.1734V9.32186H3.11673V9.29352H3.06006V9.26519H3.0034V9.23686H2.94673V9.20852H2.91839V9.18019H2.86173V9.15186H2.80506V9.12352H2.74839V9.09519H2.69172V9.06685H2.63505V9.03852H2.60672V9.01019H2.55005V8.98185H2.49338V8.95352H2.43672V8.92518H2.38005V8.89685H2.35172V8.86852H2.29505V8.84018H2.26671V8.81185H2.21005V8.78351H2.18171V8.75518H2.12504V8.72685H2.09671V8.69851H2.04004V8.67018H2.01171V8.64184H1.95504V8.61351H1.92671V8.58518H1.87004V8.55684H1.8417V8.52851H1.78504V8.50018H1.7567V8.47184H1.70004V8.44351H1.6717V8.41517H1.64337V8.38684H1.61503V8.35851H1.5867V8.33017H1.53003V8.30184H1.5017V8.2735H1.47336V8.24517H1.44503V8.21684H1.4167V8.1885H1.36003V8.16017H1.33169V8.13183H1.30336V8.1035H1.27503V8.07517H1.24669V8.04683H1.21836V8.0185H1.16169V7.99016H1.13336V7.96183H1.10502V7.9335H1.07669V7.90516H1.04835V7.87683H1.02002V7.8485H0.991687V7.79183H0.963353V7.76349H0.935019V7.73516H0.906685V7.70683H0.878351V7.67849H0.850018V7.65016H0.821684V7.62182H0.79335V7.59349H0.765016V7.56516H0.736682V7.50849H0.708348V7.48015H0.680014V7.45182H0.65168V7.42349H0.623346V7.39515H0.595012V7.33848H0.566678V7.28182H0.538344V7.25348H0.510011V7.19681H0.481677V7.16848H0.453343V7.11181H0.425009V7.05515H0.396675V7.02681H0.368341V6.97014H0.340007V6.94181H0.311673V6.88514H0.283339V6.82847H0.255005V6.74347H0.226671V6.65847H0.198337V6.6018H0.170004V6.5168H0.14167V6.4318H0.113336V6.37513H0.0850018V6.2618H0.0566678V6.09179H0.0283339V5.92179H0V5.49678H0.0283339V5.32678H0.0566678V5.15677H0.0850018V5.07177H0.113336V4.98677H0.14167V4.90177H0.170004V4.81677H0.198337V4.7601H0.226671V4.6751H0.255005V4.59009H0.283339V4.53343H0.311673V4.47676H0.340007V4.44842H0.368341V4.39176H0.396675V4.36342H0.425009V4.30676H0.453343V4.27842H0.481677V4.22175H0.510011V4.16509H0.538344V4.13675H0.566678V4.08008H0.595012V4.05175H0.623346V3.99508H0.65168V3.96675H0.680014V3.93841H0.708348V3.91008H0.736682V3.88175H0.765016V3.82508H0.79335V3.79674H0.821684V3.76841H0.850018V3.74008H0.878351V3.71174H0.906685V3.68341H0.935019V3.65508H0.963353V3.62674H0.991687V3.59841H1.02002V3.54174H1.04835V3.51341H1.07669V3.48507H1.10502V3.45674H1.13336V3.4284H1.19002V3.40007H1.21836V3.37174H1.24669V3.3434H1.27503V3.31507H1.30336V3.28673H1.33169V3.2584H1.38836V3.23007H1.4167V3.20173H1.44503V3.1734H1.47336V3.14506H1.5017V3.11673H1.55837V3.0884H1.5867V3.06006H1.61503V3.03173H1.64337V3.0034H1.6717V2.97506H1.72837V2.94673H1.7567V2.91839H1.81337V2.89006H1.8417V2.86173H1.89837V2.83339H1.92671V2.80506H1.98337V2.77672H2.01171V2.74839H2.06838V2.72006H2.09671V2.69172H2.12504V2.66339H2.18171V2.63505H2.21005V2.60672H2.26671V2.57839H2.29505V2.55005H2.35172V2.52172H2.38005V2.49338H2.43672V2.46505H2.49338V2.43672H2.55005V2.40838H2.60672V2.38005H2.66339V2.35172H2.69172V2.32338H2.74839V2.29505H2.80506V2.26671H2.86173V2.23838H2.91839V2.21005H2.97506V2.18171H3.0034V2.15338H3.06006V2.12504H3.11673V2.09671H3.1734V2.06838H3.23007V2.04004H3.28673V2.01171H3.3434V1.98337H3.4284V1.95504H3.48507V1.92671H3.54174V1.89837H3.59841V1.87004H3.68341V1.8417H3.74008V1.81337H3.79674V1.78504H3.85341V1.7567H3.91008V1.72837H3.99508V1.70003H4.05175V1.6717H4.10842V1.64337H4.19342V1.61503H4.27842V1.5867H4.33509V1.55837H4.42009V1.53003H4.50509V1.5017H4.56176V1.47336H4.64676V1.44503H4.73176V1.4167H4.81677V1.38836H4.87343V1.36003H4.95844V1.33169H5.04344V1.30336H5.12844V1.27503H5.21344V1.24669H5.29844V1.21836H5.38344V1.19002H5.49678V1.16169H5.58178V1.13336H5.66678V1.10502H5.75179V1.07669H5.86512V1.04835H5.95012V1.02002H6.03512V0.991687H6.14846V0.963353H6.2618V0.935019H6.37513V0.906685H6.48847V0.878351H6.6018V0.850017H6.71514V0.821684H6.82847V0.79335H6.94181V0.765016H7.05515V0.736682H7.16848V0.708348H7.28182V0.680014H7.42349V0.65168H7.56516V0.623346H7.70683V0.595012H7.8485V0.566678H7.99016V0.538344H8.13183V0.51001H8.2735V0.481677H8.41517V0.453343H8.58518V0.425009H8.78351V0.396675H8.95352V0.368341H9.15186V0.340007H9.35019V0.311673H9.5202V0.283339H9.71853V0.255005H9.97354V0.226671H10.2285V0.198337H10.5119V0.170003H10.7669V0.14167H11.0502V0.113336H11.4469V0.0850017H11.9002V0.0566678H12.3536V0.0283339H13.2036V-4.47035e-08H14.6203V0.0283339H15.4987V0.0566678H15.952V0.0850017H16.4053V0.113336H16.802V0.14167H17.0854V0.170003H17.3404V0.198337H17.6237V0.226671H17.8787V0.255005H18.1337V0.283339H18.3037V0.311673H18.502V0.340007H18.7004V0.368341H18.8704V0.396675H19.0687V0.425009H19.2671V0.453343H19.4371V0.481677H19.5787V0.51001H19.7204V0.538344H19.8621V0.566678H20.0037V0.595012H20.1454V0.623346H20.2871V0.65168H20.4288V0.680014H20.5704V0.708348H20.6838V0.736682H20.7971V0.765016H20.9104V0.79335H21.0238V0.821684H21.1371V0.850017H21.2504V0.878351H21.3638V0.906685H21.4771V0.935019H21.5904V0.963353H21.7038V0.991687H21.8171V1.02002H21.9021V1.04835H21.9871V1.07669H22.0721V1.10502H22.1855V1.13336H22.2705V1.16169H22.3555V1.19002H22.4405V1.21836H22.5538V1.24669H22.6388V1.27503H22.7238V1.30336H22.8088V1.33169H22.8938V1.36003H22.9788V1.38836H23.0355V1.4167H23.1205V1.44503H23.2055V1.47336H23.2621V1.5017H23.3471V1.53003H23.4321V1.55837H23.4888V1.5867H23.5738V1.61503H23.6588V1.64337H23.7438V1.6717H23.8005V1.70003H23.8572V1.72837H23.9138V1.7567H23.9988V1.78504H24.0555V1.81337H24.1122V1.8417H24.1688V1.87004H24.2538V1.89837H24.3105V1.92671H24.3672V1.95504H24.4238V1.98337H24.4805V2.01171H24.5655V2.04004H24.6222V2.06838H24.6788V2.09671H24.7355V2.12504H24.7922V2.15338H24.8205V2.18171H24.8772V2.21005H24.9338V2.23838H24.9905V2.26671H25.0472V2.29505H25.1039V2.32338H25.1322V2.35172H25.1889V2.38005H25.2455V2.40838H25.3022V2.43672H25.3589V2.46505H25.4155V2.49338H25.4439V2.52172H25.5005V2.55005H25.5289V2.57839H25.5855V2.60672H25.6139V2.63505H25.6705V2.66339H25.6989V2.69172H25.7555V2.72006H25.7839V2.74839H25.8405V2.77672H25.8689V2.80506H25.9255V2.83339H25.9539V2.86173H26.0105V2.89006H26.0389V2.91839H26.0955V2.94673H26.1239V2.97506H26.1805V3.0034H26.2089V3.03173H26.2372V3.06006H26.2655V3.0884H26.2939V3.11673H26.3222V3.14506H26.3789V3.1734H26.4072V3.20173H26.4355V3.23007H26.4639V3.2584H26.4922V3.28673H26.5489V3.31507H26.5772V3.3434H26.6055V3.37174H26.6339V3.40007H26.6622V3.4284H26.6906V3.45674H26.7472V3.48507H26.7756V3.51341H26.8039V3.57007H26.8322V3.59841H26.8606V3.62674H26.8889V3.65508H26.9172V3.68341H26.9456V3.71174H26.9739V3.74008H27.0022V3.76841H27.0306V3.82508H27.0589V3.85341H27.0872V3.88175H27.1156V3.91008H27.1439V3.93841H27.1722V3.96675H27.2006V3.99508H27.2289V4.05175H27.2572V4.08008H27.2856V4.13675H27.3139V4.19342H27.3422V4.22175H27.3706V4.27842H27.3989V4.30676H27.4272V4.36342H27.4556V4.42009H27.4839V4.44842H27.5122V4.50509H27.5406V4.53343H27.5689V4.61843H27.5972V4.70343H27.6256V4.7601H27.6539V4.8451H27.6822V4.9301H27.7106V4.98677H27.7389V5.07177H27.7672V5.18511H27.7956V5.35511H27.8239V5.52511H27.8522V5.89345H27.8239V6.06346H27.7956V6.23346H27.7672V6.3468H27.7389V6.4318H27.7106V6.5168H27.6822V6.57347H27.6539V6.65847H27.6256V6.74347H27.5972V6.80014H27.5689V6.88514H27.5406V6.91348H27.5122V6.97014H27.4839V7.02681H27.4556V7.05515H27.4272V7.11181H27.3989V7.14015H27.3706V7.19681H27.3422V7.22515H27.3139V7.28182H27.2856V7.33848H27.2572V7.36682H27.2289V7.42349H27.2006V7.45182H27.1722V7.48015H27.1439V7.50849H27.1156V7.53682H27.0872V7.56516H27.0589V7.62182H27.0306V7.65016H27.0022V7.67849H26.9739V7.70683H26.9456V7.73516H26.9172V7.76349H26.8889V7.79183H26.8606V7.82016H26.8322V7.87683H26.8039V7.90516H26.7756V7.9335H26.7472V7.96183H26.7189V7.99016H26.6622V8.0185H26.6339V8.04683H26.6055V8.07517H26.5772V8.1035H26.5489V8.13183H26.5205V8.16017H26.4639V8.1885H26.4355V8.21684H26.4072V8.24517H26.3789V8.2735H26.3505V8.30184H26.2939V8.33017H26.2655V8.35851H26.2372V8.38684H26.2089V8.41517H26.1805V8.44351H26.1239V8.47184H26.0955V8.50018H26.0389V8.52851H26.0105V8.55684H25.9539V8.58518H25.9255V8.61351H25.8689V8.64184H25.8405V8.67018H25.7839V8.69851H25.7555V8.72685H25.7272V8.75518H25.6705V8.78351H25.6422V8.81185H25.5855V8.84018H25.5572V8.86852H25.5005V8.89685H25.4722V8.92518H25.4155V8.95352H25.3589V8.98185H25.3022V9.01019H25.2455V9.03852H25.1889V9.06685H25.1605V9.09519H25.1039V9.12352H25.0472V9.15186H24.9905V9.18019H24.9338V9.20852H24.8772V9.23686H24.8488V9.26519H24.7922V9.29352H24.7355V9.32186H24.6788V9.35019H24.6222V9.37853H24.5655V9.40686H24.5088V9.43519H24.4238V9.46353H24.3672V9.49186H24.3105V9.5202H24.2538V9.54853H24.1972V9.57686H24.1122V9.6052H24.0555V9.63353H23.9988V9.66187H23.9422V9.6902H23.8572V9.71853H23.8005V9.74687H23.7438V9.7752H23.6588V9.80354H23.5738V9.83187H23.5172V9.8602H23.4321V9.88854H23.3471V9.91687H23.2905V9.9452H23.2055V9.97354H23.1205V10.0019H23.0638V10.0302H22.9788V10.0585H22.8938V10.0869H22.8371V10.1152H22.7521V10.1435H22.6388V10.1719H22.5538V10.2002H22.4688V10.2285H22.3838V10.2569H22.2705V10.2852H22.1855V10.3135H22.1005V10.3419H22.0155V10.3702H21.9021V10.3985H21.8171V10.4269H21.7321V10.4552H21.6188V10.4835H21.5054V10.5119H21.3921V10.5402H21.2788V10.5686H21.1654V10.5969H21.0521V10.6252H20.9388V10.6536H20.8254V10.6819H20.7121V10.7102H20.5988V10.7386H20.4571V10.7669H20.3154V10.7952H20.1737V10.8236H20.0321V10.8519H19.8621V10.8802H19.7204V10.9086H19.5787V10.9369H19.4371V10.9652H19.2954V10.9936H19.0971V11.0219H18.8987V11.0502H18.7287V11.0786H18.5304V11.1069H18.332V11.1352H18.162V11.1636H17.907V11.1919H17.652V11.2202H17.3687V11.2486H17.1137V11.2769H16.8303V11.3052H16.462V11.3336H16.0087V11.3619H15.5553V11.3902H14.762V11.4186" fill="url(#paint0_radial_3584_15411)" fill-opacity="0.8"/>
<defs>
<radialGradient id="paint0_radial_3584_15411" cx="0" cy="0" r="1" gradientUnits="userSpaceOnUse" gradientTransform="translate(13.9239 5.7107) scale(13.9034 5.69189)">
<stop stop-color="#00F2FF"/>
<stop offset="1" stop-color="#ACF0A5" stop-opacity="0"/>
</radialGradient>
</defs>
</svg>
